<svg xmlns="http://www.w3.org/2000/svg" xmlns:xlink="http://www.w3.org/1999/xlink" width="500" zoomAndPan="magnify" viewBox="0 0 375 374.999991" height="500" preserveAspectRatio="xMidYMid meet" version="1.2"><defs/><g id="bfcc97d068"><rect x="0" width="375" y="0" height="374.999991" style="fill:#ffffff;fill-opacity:1;stroke:none;"/><rect x="0" width="375" y="0" height="374.999991" style="fill:#ffffff;fill-opacity:1;stroke:none;"/><g style="fill:#000000;fill-opacity:1;"><g transform="translate(0.679692, 216.377388)"><path style="stroke:none" d="M 79.484375 -1.328125 C 79.703125 -1.328125 79.8125 -1.101562 79.8125 -0.65625 C 79.8125 -0.21875 79.703125 0 79.484375 0 C 77.210938 0 75.414062 -0.0351562 74.09375 -0.109375 L 66.5 -0.21875 L 58.34375 -0.109375 C 57.101562 -0.0351562 55.378906 0 53.171875 0 C 52.953125 0 52.84375 -0.21875 52.84375 -0.65625 C 52.84375 -1.101562 52.953125 -1.328125 53.171875 -1.328125 C 56.035156 -1.328125 58.128906 -1.507812 59.453125 -1.875 C 60.773438 -2.238281 61.671875 -2.953125 62.140625 -4.015625 C 62.617188 -5.078125 62.859375 -6.710938 62.859375 -8.921875 L 62.859375 -34.671875 L 20.59375 -34.671875 L 20.59375 -8.921875 C 20.59375 -6.710938 20.828125 -5.078125 21.296875 -4.015625 C 21.773438 -2.953125 22.675781 -2.238281 24 -1.875 C 25.320312 -1.507812 27.414062 -1.328125 30.28125 -1.328125 C 30.425781 -1.328125 30.5 -1.101562 30.5 -0.65625 C 30.5 -0.21875 30.425781 0 30.28125 0 C 28 0 26.195312 -0.0351562 24.875 -0.109375 L 16.953125 -0.21875 L 9.359375 -0.109375 C 8.035156 -0.0351562 6.203125 0 3.859375 0 C 3.710938 0 3.640625 -0.21875 3.640625 -0.65625 C 3.640625 -1.101562 3.710938 -1.328125 3.859375 -1.328125 C 6.640625 -1.328125 8.707031 -1.507812 10.0625 -1.875 C 11.425781 -2.238281 12.347656 -2.953125 12.828125 -4.015625 C 13.304688 -5.078125 13.546875 -6.710938 13.546875 -8.921875 L 13.546875 -59.890625 C 13.546875 -62.085938 13.304688 -63.703125 12.828125 -64.734375 C 12.347656 -65.765625 11.445312 -66.476562 10.125 -66.875 C 8.800781 -67.28125 6.75 -67.484375 3.96875 -67.484375 C 3.820312 -67.484375 3.75 -67.703125 3.75 -68.140625 C 3.75 -68.585938 3.820312 -68.8125 3.96875 -68.8125 L 9.578125 -68.703125 C 12.660156 -68.554688 15.117188 -68.484375 16.953125 -68.484375 C 19.078125 -68.484375 21.753906 -68.554688 24.984375 -68.703125 L 30.28125 -68.8125 C 30.425781 -68.8125 30.5 -68.585938 30.5 -68.140625 C 30.5 -67.703125 30.425781 -67.484375 30.28125 -67.484375 C 27.488281 -67.484375 25.410156 -67.265625 24.046875 -66.828125 C 22.691406 -66.390625 21.773438 -65.632812 21.296875 -64.5625 C 20.828125 -63.5 20.59375 -61.867188 20.59375 -59.671875 L 20.59375 -36.984375 L 62.859375 -36.984375 L 62.859375 -59.671875 C 62.859375 -61.867188 62.617188 -63.5 62.140625 -64.5625 C 61.671875 -65.632812 60.773438 -66.390625 59.453125 -66.828125 C 58.128906 -67.265625 56.035156 -67.484375 53.171875 -67.484375 C 52.953125 -67.484375 52.84375 -67.703125 52.84375 -68.140625 C 52.84375 -68.585938 52.953125 -68.8125 53.171875 -68.8125 L 58.34375 -68.703125 C 61.570312 -68.554688 64.289062 -68.484375 66.5 -68.484375 C 68.476562 -68.484375 71.007812 -68.554688 74.09375 -68.703125 L 79.484375 -68.8125 C 79.703125 -68.8125 79.8125 -68.585938 79.8125 -68.140625 C 79.8125 -67.703125 79.703125 -67.484375 79.484375 -67.484375 C 76.691406 -67.484375 74.632812 -67.28125 73.3125 -66.875 C 72 -66.476562 71.101562 -65.765625 70.625 -64.734375 C 70.144531 -63.703125 69.90625 -62.085938 69.90625 -59.890625 L 69.90625 -8.921875 C 69.90625 -6.710938 70.144531 -5.078125 70.625 -4.015625 C 71.101562 -2.953125 72 -2.238281 73.3125 -1.875 C 74.632812 -1.507812 76.691406 -1.328125 79.484375 -1.328125 Z M 79.484375 -1.328125 "/></g></g><g style="fill:#000000;fill-opacity:1;"><g transform="translate(84.234889, 216.377388)"><path style="stroke:none" d="M 52.296875 -16.40625 C 52.296875 -16.550781 52.441406 -16.625 52.734375 -16.625 C 52.953125 -16.625 53.148438 -16.585938 53.328125 -16.515625 C 53.515625 -16.441406 53.609375 -16.332031 53.609375 -16.1875 C 52.953125 -11.5625 52.625 -6.71875 52.625 -1.65625 C 52.625 -1.0625 52.492188 -0.632812 52.234375 -0.375 C 51.984375 -0.125 51.523438 0 50.859375 0 L 4.734375 0 C 4.585938 0 4.515625 -0.21875 4.515625 -0.65625 C 4.515625 -1.101562 4.585938 -1.328125 4.734375 -1.328125 C 7.523438 -1.328125 9.5625 -1.507812 10.84375 -1.875 C 12.125 -2.238281 13.003906 -2.953125 13.484375 -4.015625 C 13.960938 -5.078125 14.203125 -6.710938 14.203125 -8.921875 L 14.203125 -59.890625 C 14.203125 -62.085938 13.960938 -63.703125 13.484375 -64.734375 C 13.003906 -65.765625 12.125 -66.476562 10.84375 -66.875 C 9.5625 -67.28125 7.523438 -67.484375 4.734375 -67.484375 C 4.585938 -67.484375 4.515625 -67.703125 4.515625 -68.140625 C 4.515625 -68.585938 4.585938 -68.8125 4.734375 -68.8125 L 48.984375 -68.8125 C 49.648438 -68.8125 49.984375 -68.476562 49.984375 -67.8125 L 50.203125 -54.28125 C 50.203125 -54.0625 50.019531 -53.929688 49.65625 -53.890625 C 49.289062 -53.847656 49.066406 -53.941406 48.984375 -54.171875 C 48.765625 -58.054688 47.59375 -61.082031 45.46875 -63.25 C 43.34375 -65.414062 40.515625 -66.5 36.984375 -66.5 L 30.28125 -66.5 C 27.707031 -66.5 25.816406 -66.296875 24.609375 -65.890625 C 23.398438 -65.484375 22.554688 -64.785156 22.078125 -63.796875 C 21.597656 -62.804688 21.359375 -61.320312 21.359375 -59.34375 L 21.359375 -36.984375 L 34.796875 -36.984375 C 38.316406 -36.984375 40.828125 -37.570312 42.328125 -38.75 C 43.835938 -39.925781 44.59375 -41.910156 44.59375 -44.703125 C 44.59375 -44.847656 44.8125 -44.921875 45.25 -44.921875 C 45.6875 -44.921875 45.90625 -44.847656 45.90625 -44.703125 L 45.796875 -35.78125 C 45.796875 -33.65625 45.832031 -32.039062 45.90625 -30.9375 L 46.015625 -25.65625 C 46.015625 -25.507812 45.796875 -25.4375 45.359375 -25.4375 C 44.921875 -25.4375 44.703125 -25.507812 44.703125 -25.65625 C 44.703125 -28.882812 43.910156 -31.191406 42.328125 -32.578125 C 40.753906 -33.972656 38.128906 -34.671875 34.453125 -34.671875 L 21.359375 -34.671875 L 21.359375 -9.359375 C 21.359375 -7.304688 21.578125 -5.800781 22.015625 -4.84375 C 22.453125 -3.882812 23.257812 -3.222656 24.4375 -2.859375 C 25.613281 -2.492188 27.453125 -2.3125 29.953125 -2.3125 L 38.75 -2.3125 C 42.269531 -2.3125 45.203125 -3.554688 47.546875 -6.046875 C 49.898438 -8.546875 51.484375 -12 52.296875 -16.40625 Z M 52.296875 -16.40625 "/></g></g><g style="fill:#000000;fill-opacity:1;"><g transform="translate(143.351013, 216.377388)"><path style="stroke:none" d="M 40.296875 1.328125 C 33.472656 1.328125 27.398438 -0.265625 22.078125 -3.453125 C 16.753906 -6.648438 12.640625 -10.984375 9.734375 -16.453125 C 6.835938 -21.921875 5.390625 -27.882812 5.390625 -34.34375 C 5.390625 -41.90625 7.296875 -48.382812 11.109375 -53.78125 C 14.929688 -59.175781 19.832031 -63.226562 25.8125 -65.9375 C 31.800781 -68.65625 37.910156 -70.015625 44.140625 -70.015625 C 51.117188 -70.015625 57.25 -68.378906 62.53125 -65.109375 C 67.8125 -61.847656 71.863281 -57.535156 74.6875 -52.171875 C 77.519531 -46.816406 78.9375 -41.132812 78.9375 -35.125 C 78.9375 -28.4375 77.175781 -22.300781 73.65625 -16.71875 C 70.132812 -11.144531 65.414062 -6.742188 59.5 -3.515625 C 53.59375 -0.285156 47.191406 1.328125 40.296875 1.328125 Z M 44.140625 -0.984375 C 49.140625 -0.984375 53.640625 -2.191406 57.640625 -4.609375 C 61.640625 -7.035156 64.789062 -10.597656 67.09375 -15.296875 C 69.40625 -19.992188 70.5625 -25.570312 70.5625 -32.03125 C 70.5625 -38.9375 69.273438 -45.066406 66.703125 -50.421875 C 64.140625 -55.773438 60.523438 -59.957031 55.859375 -62.96875 C 51.203125 -65.976562 45.757812 -67.484375 39.53125 -67.484375 C 31.445312 -67.484375 25.128906 -64.878906 20.578125 -59.671875 C 16.035156 -54.460938 13.765625 -47.304688 13.765625 -38.203125 C 13.765625 -31.304688 15.046875 -25.015625 17.609375 -19.328125 C 20.179688 -13.640625 23.78125 -9.160156 28.40625 -5.890625 C 33.03125 -2.617188 38.273438 -0.984375 44.140625 -0.984375 Z M 44.140625 -0.984375 "/></g></g><g style="fill:#000000;fill-opacity:1;"><g transform="translate(227.676809, 216.377388)"><path style="stroke:none" d="M 62.96875 -56.703125 C 62.96875 -63.890625 59.773438 -67.484375 53.390625 -67.484375 C 53.171875 -67.484375 53.0625 -67.703125 53.0625 -68.140625 C 53.0625 -68.585938 53.171875 -68.8125 53.390625 -68.8125 L 58.125 -68.703125 C 60.769531 -68.554688 62.863281 -68.484375 64.40625 -68.484375 C 65.65625 -68.484375 67.453125 -68.554688 69.796875 -68.703125 L 74.421875 -68.8125 C 74.566406 -68.8125 74.640625 -68.585938 74.640625 -68.140625 C 74.640625 -67.703125 74.566406 -67.484375 74.421875 -67.484375 C 68.546875 -67.484375 65.609375 -63.890625 65.609375 -56.703125 L 65.609375 -25.4375 C 65.609375 -16.988281 63.257812 -10.394531 58.5625 -5.65625 C 53.875 -0.925781 47.566406 1.4375 39.640625 1.4375 C 34.203125 1.4375 29.445312 0.375 25.375 -1.75 C 21.300781 -3.882812 18.144531 -6.914062 15.90625 -10.84375 C 13.664062 -14.769531 12.546875 -19.375 12.546875 -24.65625 L 12.546875 -59.890625 C 12.546875 -62.085938 12.328125 -63.703125 11.890625 -64.734375 C 11.453125 -65.765625 10.585938 -66.476562 9.296875 -66.875 C 8.015625 -67.28125 5.976562 -67.484375 3.1875 -67.484375 C 3.039062 -67.484375 2.96875 -67.703125 2.96875 -68.140625 C 2.96875 -68.585938 3.039062 -68.8125 3.1875 -68.8125 L 8.59375 -68.703125 C 11.675781 -68.554688 14.171875 -68.484375 16.078125 -68.484375 C 18.128906 -68.484375 20.695312 -68.554688 23.78125 -68.703125 L 29.0625 -68.8125 C 29.28125 -68.8125 29.390625 -68.585938 29.390625 -68.140625 C 29.390625 -67.703125 29.28125 -67.484375 29.0625 -67.484375 C 26.34375 -67.484375 24.320312 -67.265625 23 -66.828125 C 21.6875 -66.390625 20.804688 -65.632812 20.359375 -64.5625 C 19.921875 -63.5 19.703125 -61.867188 19.703125 -59.671875 L 19.703125 -28.515625 C 19.703125 -19.929688 21.664062 -13.34375 25.59375 -8.75 C 29.519531 -4.164062 35.007812 -1.875 42.0625 -1.875 C 48.664062 -1.875 53.800781 -3.945312 57.46875 -8.09375 C 61.132812 -12.238281 62.96875 -17.984375 62.96875 -25.328125 Z M 62.96875 -56.703125 "/></g></g><g style="fill:#000000;fill-opacity:1;"><g transform="translate(304.516762, 216.377388)"><path style="stroke:none" d="M 20.8125 -66.828125 C 16.1875 -66.828125 12.71875 -65.648438 10.40625 -63.296875 C 8.09375 -60.953125 6.421875 -56.953125 5.390625 -51.296875 C 5.390625 -51.148438 5.1875 -51.078125 4.78125 -51.078125 C 4.382812 -51.078125 4.1875 -51.148438 4.1875 -51.296875 C 4.476562 -53.941406 4.804688 -57.390625 5.171875 -61.640625 C 5.535156 -65.898438 5.71875 -69.097656 5.71875 -71.234375 C 5.71875 -71.597656 5.921875 -71.78125 6.328125 -71.78125 C 6.734375 -71.78125 6.9375 -71.597656 6.9375 -71.234375 C 6.9375 -69.617188 8.914062 -68.8125 12.875 -68.8125 C 19.113281 -68.59375 26.492188 -68.484375 35.015625 -68.484375 C 39.335938 -68.484375 43.921875 -68.554688 48.765625 -68.703125 L 56.265625 -68.8125 C 58.898438 -68.8125 60.859375 -68.992188 62.140625 -69.359375 C 63.429688 -69.722656 64.257812 -70.457031 64.625 -71.5625 C 64.695312 -71.851562 64.914062 -72 65.28125 -72 C 65.65625 -72 65.84375 -71.851562 65.84375 -71.5625 C 65.613281 -69.4375 65.390625 -66.207031 65.171875 -61.875 C 64.953125 -57.539062 64.84375 -54.015625 64.84375 -51.296875 C 64.84375 -51.148438 64.625 -51.078125 64.1875 -51.078125 C 63.75 -51.078125 63.53125 -51.148438 63.53125 -51.296875 C 63.300781 -57.023438 62.125 -61.046875 60 -63.359375 C 57.875 -65.671875 54.351562 -66.828125 49.4375 -66.828125 C 46.132812 -66.828125 43.785156 -66.679688 42.390625 -66.390625 C 40.992188 -66.097656 40.035156 -65.472656 39.515625 -64.515625 C 39.003906 -63.554688 38.75 -61.941406 38.75 -59.671875 L 38.75 -8.921875 C 38.75 -6.640625 39.003906 -4.984375 39.515625 -3.953125 C 40.035156 -2.929688 41.03125 -2.238281 42.5 -1.875 C 43.96875 -1.507812 46.28125 -1.328125 49.4375 -1.328125 C 49.65625 -1.328125 49.765625 -1.101562 49.765625 -0.65625 C 49.765625 -0.21875 49.65625 0 49.4375 0 C 47.007812 0 45.0625 -0.0351562 43.59375 -0.109375 L 35.015625 -0.21875 L 26.75 -0.109375 C 25.28125 -0.0351562 23.265625 0 20.703125 0 C 20.554688 0 20.484375 -0.21875 20.484375 -0.65625 C 20.484375 -1.101562 20.554688 -1.328125 20.703125 -1.328125 C 23.859375 -1.328125 26.164062 -1.507812 27.625 -1.875 C 29.09375 -2.238281 30.101562 -2.953125 30.65625 -4.015625 C 31.207031 -5.078125 31.484375 -6.710938 31.484375 -8.921875 L 31.484375 -59.890625 C 31.484375 -62.160156 31.226562 -63.753906 30.71875 -64.671875 C 30.207031 -65.597656 29.253906 -66.1875 27.859375 -66.4375 C 26.460938 -66.695312 24.113281 -66.828125 20.8125 -66.828125 Z M 20.8125 -66.828125 "/></g></g></g></svg>